<?xml version="1.0" encoding="utf-8"?>
<!-- Generator: Adobe Illustrator 17.0.0, SVG Export Plug-In . SVG Version: 6.00 Build 0)  -->
<!DOCTYPE svg PUBLIC "-//W3C//DTD SVG 1.1//EN" "http://www.w3.org/Graphics/SVG/1.1/DTD/svg11.dtd">
<svg version="1.1" id="Layer_1" xmlns="http://www.w3.org/2000/svg" xmlns:xlink="http://www.w3.org/1999/xlink" x="0px" y="0px"
	 width="838px" height="644px" viewBox="0 0 838 644" enable-background="new 0 0 838 644" xml:space="preserve">
<g>
	<path fill="#AB824F" d="M838,637.447c0,3.619-2.934,6.553-6.553,6.553H6.553C2.934,644,0,641.066,0,637.447V260.553
		C0,256.934,2.934,254,6.553,254h824.894c3.619,0,6.553,2.934,6.553,6.553L838,637.447L838,637.447z"/>
	<path fill="#DEB778" d="M838,621.447c0,3.619-2.934,6.553-6.553,6.553H6.553C2.934,628,0,625.066,0,621.447V250.553
		C0,246.934,2.934,244,6.553,244h824.894c3.619,0,6.553,2.934,6.553,6.553L838,621.447L838,621.447z"/>
	<path fill="#D1A164" d="M735.798,308H277.076c-7.238,0-15.076,6.673-15.076,13.911v216.255v3.277
		c0,7.238,7.838,12.558,15.076,12.558h458.722c7.238,0,12.202-5.32,12.202-12.558v-3.277V321.911
		C748,314.673,743.036,308,735.798,308z"/>
	<path fill="#515656" d="M764,294.894c0,7.238-5.868,13.106-13.106,13.106H293.106c-7.238,0-13.106-5.868-13.106-13.106V13.106
		C280,5.868,285.868,0,293.106,0h457.787C758.132,0,764,5.868,764,13.106V294.894z"/>
	<path fill="#D8E3E6" d="M764,538H280V321.911c0-7.238,6.221-13.911,13.459-13.911h458.722c7.238,0,11.819,6.673,11.819,13.911V538z
		"/>
	<path fill="#515656" d="M404,386.509c0,4.137-3.354,7.491-7.491,7.491H349.49c-4.137,0-7.491-3.354-7.491-7.491V375.49
		c0-4.137,3.354-7.491,7.491-7.491h47.019c4.137,0,7.491,3.354,7.491,7.491V386.509z"/>
	<path fill="#515656" d="M702,386.509c0,4.137-3.354,7.491-7.491,7.491H647.49c-4.137,0-7.491-3.354-7.491-7.491V375.49
		c0-4.137,3.354-7.491,7.491-7.491h47.019c4.137,0,7.491,3.354,7.491,7.491V386.509z"/>
	<path fill="#515656" d="M384,422.509c0,4.137-3.354,7.491-7.491,7.491H349.49c-4.137,0-7.491-3.354-7.491-7.491V411.49
		c0-4.137,3.354-7.491,7.491-7.491h27.019c4.137,0,7.491,3.354,7.491,7.491V422.509z"/>
	<path fill="#515656" d="M432,422.509c0,4.137-3.354,7.491-7.491,7.491H397.49c-4.137,0-7.491-3.354-7.491-7.491V411.49
		c0-4.137,3.354-7.491,7.491-7.491h27.019c4.137,0,7.491,3.354,7.491,7.491V422.509z"/>
	<path fill="#515656" d="M652,422.509c0,4.137-3.354,7.491-7.491,7.491H617.49c-4.137,0-7.491-3.354-7.491-7.491V411.49
		c0-4.137,3.354-7.491,7.491-7.491h27.019c4.137,0,7.491,3.354,7.491,7.491V422.509z"/>
	<path fill="#515656" d="M702,422.509c0,4.137-3.354,7.491-7.491,7.491H667.49c-4.137,0-7.491-3.354-7.491-7.491V411.49
		c0-4.137,3.354-7.491,7.491-7.491h27.019c4.137,0,7.491,3.354,7.491,7.491V422.509z"/>
	<path fill="#515656" d="M604,422.509c0,4.137-3.354,7.491-7.491,7.491H447.491c-4.137,0-7.491-3.354-7.491-7.491V411.49
		c0-4.137,3.354-7.491,7.491-7.491H596.51c4.137,0,7.491,3.354,7.491,7.491v11.019H604z"/>
	<path fill="#515656" d="M370,350.509c0,4.137-3.354,7.491-7.491,7.491H351.49c-4.137,0-7.491-3.354-7.491-7.491V339.49
		c0-4.137,3.354-7.491,7.491-7.491h11.019c4.137,0,7.491,3.354,7.491,7.491V350.509z"/>
	<path fill="#515656" d="M404,350.509c0,4.137-3.354,7.491-7.491,7.491H385.49c-4.137,0-7.491-3.354-7.491-7.491V339.49
		c0-4.137,3.354-7.491,7.491-7.491h11.019c4.137,0,7.491,3.354,7.491,7.491V350.509z"/>
	<path fill="#515656" d="M436,350.509c0,4.137-3.354,7.491-7.491,7.491H417.49c-4.137,0-7.491-3.354-7.491-7.491V339.49
		c0-4.137,3.354-7.491,7.491-7.491h11.019c4.137,0,7.491,3.354,7.491,7.491V350.509z"/>
	<path fill="#515656" d="M468,350.509c0,4.137-3.354,7.491-7.491,7.491H449.49c-4.137,0-7.491-3.354-7.491-7.491V339.49
		c0-4.137,3.354-7.491,7.491-7.491h11.019c4.137,0,7.491,3.354,7.491,7.491V350.509z"/>
	<path fill="#515656" d="M502,350.509c0,4.137-3.354,7.491-7.491,7.491H483.49c-4.137,0-7.491-3.354-7.491-7.491V339.49
		c0-4.137,3.354-7.491,7.491-7.491h11.019c4.137,0,7.491,3.354,7.491,7.491V350.509z"/>
	<path fill="#515656" d="M534,350.509c0,4.137-3.354,7.491-7.491,7.491H515.49c-4.137,0-7.491-3.354-7.491-7.491V339.49
		c0-4.137,3.354-7.491,7.491-7.491h11.019c4.137,0,7.491,3.354,7.491,7.491V350.509z"/>
	<path fill="#515656" d="M568,350.509c0,4.137-3.354,7.491-7.491,7.491H549.49c-4.137,0-7.491-3.354-7.491-7.491V339.49
		c0-4.137,3.354-7.491,7.491-7.491h11.019c4.137,0,7.491,3.354,7.491,7.491V350.509z"/>
	<path fill="#515656" d="M600,350.509c0,4.137-3.354,7.491-7.491,7.491H581.49c-4.137,0-7.491-3.354-7.491-7.491V339.49
		c0-4.137,3.354-7.491,7.491-7.491h11.019c4.137,0,7.491,3.354,7.491,7.491V350.509z"/>
	<path fill="#515656" d="M632,350.509c0,4.137-3.354,7.491-7.491,7.491H613.49c-4.137,0-7.491-3.354-7.491-7.491V339.49
		c0-4.137,3.354-7.491,7.491-7.491h11.019c4.137,0,7.491,3.354,7.491,7.491V350.509z"/>
	<path fill="#515656" d="M666,350.509c0,4.137-3.354,7.491-7.491,7.491H647.49c-4.137,0-7.491-3.354-7.491-7.491V339.49
		c0-4.137,3.354-7.491,7.491-7.491h11.019c4.137,0,7.491,3.354,7.491,7.491V350.509z"/>
	<path fill="#515656" d="M436,386.509c0,4.137-3.354,7.491-7.491,7.491H417.49c-4.137,0-7.491-3.354-7.491-7.491V375.49
		c0-4.137,3.354-7.491,7.491-7.491h11.019c4.137,0,7.491,3.354,7.491,7.491V386.509z"/>
	<path fill="#515656" d="M468,386.509c0,4.137-3.354,7.491-7.491,7.491H449.49c-4.137,0-7.491-3.354-7.491-7.491V375.49
		c0-4.137,3.354-7.491,7.491-7.491h11.019c4.137,0,7.491,3.354,7.491,7.491V386.509z"/>
	<path fill="#515656" d="M502,386.509c0,4.137-3.354,7.491-7.491,7.491H483.49c-4.137,0-7.491-3.354-7.491-7.491V375.49
		c0-4.137,3.354-7.491,7.491-7.491h11.019c4.137,0,7.491,3.354,7.491,7.491V386.509z"/>
	<path fill="#515656" d="M534,386.509c0,4.137-3.354,7.491-7.491,7.491H515.49c-4.137,0-7.491-3.354-7.491-7.491V375.49
		c0-4.137,3.354-7.491,7.491-7.491h11.019c4.137,0,7.491,3.354,7.491,7.491V386.509z"/>
	<path fill="#515656" d="M568,386.509c0,4.137-3.354,7.491-7.491,7.491H549.49c-4.137,0-7.491-3.354-7.491-7.491V375.49
		c0-4.137,3.354-7.491,7.491-7.491h11.019c4.137,0,7.491,3.354,7.491,7.491V386.509z"/>
	<path fill="#515656" d="M600,386.509c0,4.137-3.354,7.491-7.491,7.491H581.49c-4.137,0-7.491-3.354-7.491-7.491V375.49
		c0-4.137,3.354-7.491,7.491-7.491h11.019c4.137,0,7.491,3.354,7.491,7.491V386.509z"/>
	<path fill="#515656" d="M632,386.509c0,4.137-3.354,7.491-7.491,7.491H613.49c-4.137,0-7.491-3.354-7.491-7.491V375.49
		c0-4.137,3.354-7.491,7.491-7.491h11.019c4.137,0,7.491,3.354,7.491,7.491V386.509z"/>
	<path fill="#515656" d="M698,350.509c0,4.137-3.354,7.491-7.491,7.491H679.49c-4.137,0-7.491-3.354-7.491-7.491V339.49
		c0-4.137,3.354-7.491,7.491-7.491h11.019c4.137,0,7.491,3.354,7.491,7.491V350.509z"/>
	<rect x="306" y="28" fill="#333333" width="432" height="254"/>
	<rect x="306" y="28" fill="#232323" width="64" height="254"/>
	<rect x="306" y="28" fill="#424242" width="432" height="16"/>
	<ellipse fill="#D1A164" cx="117.617" cy="323.703" rx="55.702" ry="37.834"/>
	<path fill="#969FA1" d="M764,541.442c0,7.238-4.581,12.558-11.819,12.558H293.459c-7.238,0-13.459-5.32-13.459-12.558V538h484
		V541.442z"/>
	<path fill="#C2CDCF" d="M588,505.447c0,3.619-2.934,6.553-6.553,6.553H462.553c-3.619,0-6.553-2.934-6.553-6.553v-48.894
		c0-3.619,2.934-6.553,6.553-6.553h118.894c3.619,0,6.553,2.934,6.553,6.553V505.447z"/>
	<polygon fill="#D1A164" points="215.655,579.126 215.623,429.007 215.615,392.979 71.501,393.01 71.509,429.039 71.542,579.157 
		71.546,597.172 215.659,597.14 	"/>
	<rect x="82.856" y="392.995" fill="#F27777" width="144.114" height="36.028"/>
	<rect x="82.877" y="429.023" fill="#FFFFFF" width="144.114" height="150.118"/>
	<rect x="82.895" y="579.142" fill="#C1DEE6" width="144.114" height="18.014"/>
	<polygon fill="#CEE8F0" points="227.011,551.268 82.897,551.299 82.893,546.391 227.007,546.36 	"/>
	<polygon fill="#CEE8F0" points="227.011,521.779 82.897,521.81 82.893,516.902 227.007,516.871 	"/>
	<polygon fill="#CEE8F0" points="227.011,492.289 82.897,492.321 82.893,487.413 227.007,487.381 	"/>
	<polygon fill="#CEE8F0" points="227.011,462.8 82.897,462.831 82.893,457.924 227.007,457.892 	"/>
	<polygon opacity="0.04" fill="#FFFFFF" enable-background="new    " points="306.565,28 738,276.038 738,28 	"/>
	<g>
		<path fill="#1D80C2" d="M66.392,246c-0.067,4-0.109,4.493-0.109,6.624c0,63.452,27.851,105.191,68.808,105.191
			c43.687,0,68.808-41.808,68.808-105.26c0-2.131-0.042-2.556-0.109-6.556H66.392V246z"/>
		<polygon fill="#C1EBC3" points="44,336 76,336 76,302.251 60,292.421 44,303.48 		"/>
		<path fill="none" stroke="#1D80C2" stroke-width="5" stroke-miterlimit="10" d="M69.013,266.209c0,0-27.851-3.824-27.851,22.936
			s44.234,31.371,44.234,31.371"/>
		<ellipse fill="#47A8EB" cx="135.092" cy="244.911" rx="68.808" ry="50.787"/>
		<path fill="#6B4C28" d="M192.176,244.949c0,23.269-25.557,38.858-57.084,38.858c-31.528,0-57.084-15.589-57.084-38.858
			s25.557-38.935,57.084-38.935S192.176,221.68,192.176,244.949z"/>
		<path fill="#8F6739" d="M190.029,256.276c-6.71-9.852-28.734-19.403-54.937-19.403c-26.2,0-48.228,9.551-54.937,19.403
			c6.71,17.762,28.737,30.808,54.937,30.808C161.295,287.084,183.319,274.038,190.029,256.276z"/>
		<path fill="none" stroke="#FFF5E6" stroke-width="2" stroke-linecap="round" stroke-miterlimit="10" d="M105.465,260.884
			c0,0-11.468-7.785-29.08-1.229S61.64,296.927,61.64,296.927"/>
		<rect x="44" y="336" fill="#45AD72" width="32" height="6"/>
	</g>
</g>
</svg>
